# xmcd
#
# Track frame offsets: 
#        150
#        23425
#        38511
#        60600
#        76282
#        91053
#        111684
#        148434
#        180850
#        209084
#        230195
#        253121
#        264612
#        288770
#        304712
#
# Disc length: 4354 seconds
#
# Revision: 1
# Processed by: cddbd v1.5.1PL0 Copyright (c) Steve Scherf et al.
# Submitted via: ExactAudioCopy v0.95a5
#
DISCID=d311000f
DTITLE=Neil Young - A Perfect Echo - Neil Young 1967-2001 - Disc 5
DYEAR=2001
DGENRE=Rock
TTITLE0=Rockin' In The Free World (solo - Hamburg, Germany 8-Dec-1989)
TTITLE1=Don't Let It Bring You Down (solo - Hamburg, Germany 8-Dec-198
TTITLE1=9)
TTITLE2=After The Goldrush (solo - Hamburg, Germany 8-Dec-1989)
TTITLE3=Ohio (solo - Hamburg, Germany 8-Dec-1989)
TTITLE4=Too Far Gone (solo - Amsterdam, Holland 10-Dec-1989)
TTITLE5=Hangin' On A Limb (solo - Amsterdam, Holland 10-Dec-1989)
TTITLE6=Crime In The City (solo - Amsterdam, Holland 10-Dec-1989)
TTITLE7=Eldorado (solo - Amsterdam, Holland 10-Dec-1989)
TTITLE8=Someday (solo - Amsterdam, Holland 10-Dec-1989)
TTITLE9=My My Hey Hey (solo - Amsterdam, Holland 10-Dec-1989)
TTITLE10=The Old Laughing Lady (solo - Paris, France 11-Dec-1989)
TTITLE11=The Needle And The Damage Done (solo - Paris, France 11-Dec-1
TTITLE11=989)
TTITLE12=No More (solo - Paris, France 11-Dec-1989)
TTITLE13=Days That Used To Be (CH - Mountain View, CA 26-Oct-1990)
TTITLE14=Mansion On The Hill (CH - Mountain View, CA 26-Oct-1990)
EXTD=
EXTT0=
EXTT1=
EXTT2=
EXTT3=
EXTT4=
EXTT5=
EXTT6=
EXTT7=
EXTT8=
EXTT9=
EXTT10=
EXTT11=
EXTT12=
EXTT13=
EXTT14=
PLAYORDER=
